:SAMPLES-PER-SECOND 30
:FULLY-SPECIFIED
:DEGREES
280
root  7.55773304 39.37955541 1.968251063 6.694000244 -37.8769989 -1.067993164
lowerback  11.66709995 2.886379957 -5.676720142
upperback  4.778699875 3.057250023 -1.838050008
thorax  -1.720190048 1.441329956 0.8768399954
lowerneck  -5.165180206 4.654880047 -5.318150043
upperneck  1.575019956 6.40500021 5.622360229
head  1.017889977 3.269730091 2.8605299
lclavicle  0 -9.442270133e-015 7.951389973e-016
lhumerus  3.984339952 -17.83349991 83.47619629
lradius  1.674173378e-031 -3.109017134e-031 118.302002
lwrist  -1.412450015e-030 -1.765562519e-031 14.7840004
lhand  -1.496451383e-031 -27.76390076 20.11240005
lfingers  90 7.125020027 -90
lthumb  89.89689403 5.08795885 91.16245106
rclavicle  0 -9.442270133e-015 7.951389973e-016
rhumerus  -0.5746359825 6.006669998 -84.46569824
rradius  -2.191707803e-031 2.768620765e-031 128.3659973
rwrist  1.412450015e-030 2.648343779e-031 -33.2220993
rhand  -7.920061211e-032 -33.2840004 9.303460121
rfingers  -90 -7.125020027 -90
rthumb  -92.93752616 -24.25625642 -97.11982154
rfemur  -16.49440002 5.087180138 8.344929695
rtibia  -0 0 54.74969864
rfoot  -0 -19.08379936 -17.99950027
rtoes  5.373923086 19.29304026 -105.8922705
lfemur  -33.29299927 -3.767019987 1.815430045
ltibia  -0 0 40.62739944
lfoot  4.423040663e-032 -3.682909966 -5.860680103
ltoes  -4.250644065 -19.5611806 -102.515957
281
root  7.636133329 39.5153346 1.979084465 7.050994873 -38.59700012 -0.7709960938
lowerback  11.75640011 2.914390087 -5.317070007
upperback  4.74477005 3.128609896 -1.71547997
thorax  -1.798310041 1.481490016 0.7892789841
lowerneck  -5.197989941 4.873620033 -5.157330036
upperneck  1.29113996 6.709700108 5.065670013
head  0.9369379878 3.414589882 2.643100023
lclavicle  0 -9.442270133e-015 7.951389973e-016
lhumerus  3.203710079 -17.13010025 83.46929932
lradius  1.71504879e-031 -3.086657041e-031 119.0579987
lwrist  -1.412450015e-030 1.765562519e-031 15.04899979
lhand  -1.496451383e-031 -27.76390076 20.11240005
lfingers  90 7.125020027 -90
lthumb  89.89689403 5.08795885 91.16245106
rclavicle  0 -9.442270133e-015 7.951389973e-016
rhumerus  -0.4493919909 6.49973011 -84.67489624
rradius  -2.185614389e-031 2.773433572e-031 128.2400055
rwrist  7.062250077e-031 3.531125038e-031 -33.57099915
rhand  -7.920061211e-032 -33.2840004 9.303460121
rfingers  -90 -7.125020027 -90
rthumb  -92.93752616 -24.25625642 -97.11982154
rfemur  -17.48220062 5.375349998 8.290590286
rtibia  -0 0 54.56760025
rfoot  -0 -19.87389946 -16.90209961
rtoes  5.373923086 19.29304026 -105.8922705
lfemur  -33.11520004 -3.678509951 1.62519002
ltibia  -0 0 40.73460007
lfoot  4.425858609e-032 -4.211750031 -4.705820084
ltoes  -4.250644065 -19.5611806 -102.515957
282
root  7.715421962 39.61466692 2.00479331 7.152999878 -39.39300537 -0.3309936523
lowerback  11.89750004 2.94107008 -5.083479881
upperback  4.708570004 3.180789948 -1.596750021
thorax  -1.911080003 1.511070013 0.7676659822
lowerneck  -5.015610218 5.148920059 -4.989190102
upperneck  0.9967839718 7.078440189 4.482820034
head  0.8158379793 3.58949995 2.409940004
lclavicle  0 -9.442270133e-015 7.951389973e-016
lhumerus  2.473069906 -16.39760017 83.43009949
lradius  1.754235504e-031 -3.064555732e-031 119.788002
lwrist  -7.062250077e-031 -1.765562519e-031 15.11900043
lhand  -1.496451383e-031 -27.76390076 20.11240005
lfingers  90 7.125020027 -90
lthumb  89.89689403 5.08795885 91.16245106
rclavicle  0 -9.442270133e-015 7.951389973e-016
rhumerus  -0.4153259993 7.135369778 -84.7786026
rradius  -2.182272811e-031 2.776063655e-031 128.1710052
rwrist  7.062250077e-031 1.765562519e-031 -33.69839859
rhand  -7.920061211e-032 -33.2840004 9.303460121
rfingers  -90 -7.125020027 -90
rthumb  -92.93752616 -24.25625642 -97.11982154
rfemur  -18.34269905 5.629449844 8.085969925
rtibia  -0 0 54.65090179
rfoot  -0 -20.56159973 -15.93620014
rtoes  5.373923086 19.29304026 -105.8922705
lfemur  -32.79529953 -3.674789906 1.291039944
ltibia  -0 0 41.30820084
lfoot  4.428235713e-032 -4.61055994 -3.459089994
ltoes  -4.250644065 -19.5611806 -102.515957
283
root  7.794955396 39.69177787 2.038646683 7.20300293 -40.29800415 0.003997802734
lowerback  11.95580006 2.960059881 -4.794050217
upperback  4.724969864 3.237639904 -1.460459948
thorax  -1.92208004 1.540410042 0.7377970219
lowerneck  -4.807169914 5.418439865 -4.709990025
upperneck  0.7684069872 7.429820061 3.796190023
head  0.7236959934 3.755189896 2.126450062
lclavicle  0 -9.442270133e-015 7.951389973e-016
lhumerus  1.88459003 -15.57269955 83.35820007
lradius  1.794358164e-031 -3.041237054e-031 120.5410004
lwrist  -7.062250077e-031 -1.765562519e-031 15.29199982
lhand  -1.496451383e-031 -27.76390076 20.11240005
lfingers  90 7.125020027 -90
lthumb  89.89689403 5.08795885 91.16245106
rclavicle  0 -9.442270133e-015 7.951389973e-016
rhumerus  -0.2059990019 7.863780022 -84.8927002
rradius  -2.176939103e-031 2.780248223e-031 128.0610046
rwrist  7.062250077e-031 1.324171889e-031 -33.42250061
rhand  -7.920061211e-032 -33.2840004 9.303460121
rfingers  -90 -7.125020027 -90
rthumb  -92.93752616 -24.25625642 -97.11982154
rfemur  -19.14830017 5.861599922 7.971990108
rtibia  -0 0 55.00880051
rfoot  -0 -21.10849953 -15.21560001
rtoes  5.373923086 19.29304026 -105.8922705
lfemur  -32.33739853 -3.54440999 0.9848480225
ltibia  -0 0 42.28310013
lfoot  6.644303453e-032 -4.814559937 -2.84890008
ltoes  -4.250644065 -19.5611806 -102.515957
284
root  7.876710817 39.73888788 2.080506603 7.143997192 -41.31700134 0.324005127
lowerback  11.94690037 3.003210068 -4.480730057
upperback  4.792980194 3.334559917 -1.317639947
thorax  -1.843340039 1.587419987 0.7003980279
lowerneck  -4.682280064 5.689720154 -4.321720123
upperneck  0.7189779878 7.777880192 3.046410084
head  0.713307023 3.919080019 1.815829992
lclavicle  0 -9.442270133e-015 7.951389973e-016
lhumerus  1.394309998 -14.71510029 83.3640976
lradius  1.837645575e-031 -3.015278226e-031 121.3600006
lwrist  -7.062250077e-031 1.765562519e-031 15.51379967
lhand  -1.496451383e-031 -27.76390076 20.11240005
lfingers  90 7.125020027 -90
lthumb  89.89689403 5.08795885 91.16245106
rclavicle  0 -9.442270133e-015 7.951389973e-016
rhumerus  0.1087180004 8.611989975 -84.95259857
rradius  -2.172423347e-031 2.783778159e-031 127.9680023
rwrist  0 2.869039094e-031 -32.75180054
rhand  -7.920061211e-032 -33.2840004 9.303460121
rfingers  -90 -7.125020027 -90
rthumb  -92.93752616 -24.25625642 -97.11982154
rfemur  -19.91900063 6.127349854 7.881239891
rtibia  -0 0 55.63990021
rfoot  -0 -21.35280037 -14.71940041
rtoes  5.373923086 19.29304026 -105.8922705
lfemur  -31.73600006 -3.296210051 0.6150720119
ltibia  -0 0 43.57030106
lfoot  6.645214738e-032 -4.906960011 -2.943660021
ltoes  -4.250644065 -19.5611806 -102.515957
